<?xml version="1.0" encoding="UTF-8"?>
<svg xmlns="http://www.w3.org/2000/svg" xmlns:xlink="http://www.w3.org/1999/xlink" version="1.1" viewBox="0 0 979.2 189.4">
  <defs>
    <style>
      .cls-1 {
        fill: url(#linear-gradient);
      }

      .cls-2 {
        fill: #fff;
      }

      .cls-3 {
        fill: #bcbcbc;
      }

      .cls-4 {
        fill: #808e41;
        stroke: #808e41;
        stroke-miterlimit: 10;
        stroke-width: 2px;
      }
    </style>
    <linearGradient id="linear-gradient" x1="828.5" y1="3298.6" x2="877.3" y2="3249.8" gradientTransform="translate(0 -3180)" gradientUnits="userSpaceOnUse">
      <stop offset="0" stop-color="#f29175"/>
      <stop offset="0" stop-color="#f29577"/>
      <stop offset="1" stop-color="#f6af86"/>
    </linearGradient>
  </defs>
  <!-- Generator: Adobe Illustrator 28.6.0, SVG Export Plug-In . SVG Version: 1.2.0 Build 709)  -->
  <g>
    <g id="Layer_1">
      <g id="Layer_1-2" data-name="Layer_1">
        <g>
          <g>
            <path class="cls-3" d="M608.9,130.2h-15.2V57.8h33c11.5,0,19.7,2,24.5,5.8,4.5,3.7,6.8,9.6,6.8,17.8s-2.6,14.9-7.8,18.5c-4.7,3.2-12.4,4.9-23,4.9h-18.4v25.4h.1ZM626.5,70.8h-17.6v21.2h18.4c9.2,0,13.8-3.5,13.8-10.6s-1-6.3-3-7.9c-2.3-1.8-6.1-2.8-11.5-2.8h-.1Z"/>
            <path class="cls-3" d="M727.8,57.8v12.6h-25c-5.5,0-9.7,1.4-12.6,4.3s-4.4,7.1-4.4,12.6h42.1v12.6h-42.1c0,6.4,1.4,11,4.2,13.8,2.7,2.7,7,4,12.9,4h25v12.6h-25.6c-11.3,0-19.8-3.1-25.6-9.2-5.5-5.9-8.2-14.4-8.2-25.6s2.4-21,7.2-27.1c5.5-7,14.5-10.5,27-10.5h25.2-.1Z"/>
            <path class="cls-3" d="M752.6,130.2h-16.1l30.4-72.3h16.1l30.9,72.3h-16.9l-6.6-17.3h-31.5l-6.2,17.3h-.1ZM763.7,100.1h21.7l-11-27.7s-10.7,27.7-10.7,27.7Z"/>
          </g>
          <g>
            <path class="cls-1" d="M864.3,56.8v12.7h-10c-1.6,0-2.8.3-3.7,1s-1.4,1.7-1.7,3.2c-.2.8-.3,2.9-.3,6.4s-.4,6.2-1.1,8.2c-.5,1.5-1.3,2.8-2.2,3.7-.7.7-1.9,1.4-3.6,2.1,1.7.8,3,1.6,3.9,2.5s1.6,2.2,2.2,4,.9,4.6.9,8.5.2,5.8.5,6.8c.4,1.1,1,1.8,1.8,2.2s10.8.7,13.4.7v12.6h-13.2c-5,0-8.6-.6-10.8-1.6-2.1-1.1-3.6-2.7-4.5-4.8-.9-2.1-1.4-5.3-1.4-9.5s0-1.9,0-2.8v-1.8c0-3-.3-5.1-.8-6.4s-1.3-2.2-2.3-2.8-2.5-.9-4.4-.9v-13.3c2,0,3.5-.3,4.5-.9s1.8-1.6,2.3-2.8.8-3.4.8-6.5v-3.1c0-4.6.4-7.9,1.2-9.9s1.8-3.6,3.2-4.7c1-.8,2.4-1.5,4.1-1.9,2.3-.5,4.9-.8,7.9-.8h13.6-.3Z"/>
            <path class="cls-4" d="M844.5,46.3s2.2-6.7,6.7-9c3.4-2.2,10.1,2.2,6.7,5.6-3.4,3.4-13.5,3.4-13.5,3.4h0Z"/>
          </g>
          <path class="cls-3" d="M882.4,130.2V57.8h15.2v29.3h27.9v-29.3h15.1v72.4h-15.1v-30.3h-27.9v30.3h-15.2Z"/>
        </g>
        <g>
          <g>
            <path class="cls-2" d="M323,111.1c-2.6,12.9-12.6,13.6-14.5,13.6-5.6,0-9-3.2-9-8.7s.2-2.9.5-4.6l6.2-30.7h0c0,0-7.3,0-7.3,0l-6.3,31.5v.4c-.3,1.4-.6,2.8-.6,4.5,0,8.5,5.6,14.2,13.9,14.2s10.9-2,14.5-5.9l-.9,5.2h0c0,.1,7.2.1,7.2.1l9.9-49.9h0c0,0-7.4,0-7.4,0l-6.1,30.6h-.1Z"/>
            <path class="cls-2" d="M372.6,79.9c-5.6,0-10.6,2.3-13.8,6.3l1.1-5.6h0c0,0-7.2,0-7.2,0l-9.9,49.9h0c0,.1,7.3.1,7.3.1l6.1-30.6c1.5-7.9,7.6-13.6,14.4-13.6s5.2,1.1,7,3.5h0l5.9-5.2h0c-2.7-3.2-6.3-4.8-10.9-4.8h0Z"/>
            <polygon class="cls-2" points="252.2 86.9 252.1 87 277 87 243.9 124.4 243.9 124.4 242.6 130.5 277.9 130.5 279.2 124.1 252.8 124.1 286 86.6 286 86.6 287.3 80.5 253.4 80.5 252.2 86.9"/>
            <polygon class="cls-2" points="384.5 130.4 384.5 130.5 391.8 130.5 401.7 80.5 394.5 80.5 384.5 130.4"/>
            <path class="cls-2" d="M483.3,79.9c-6,0-10.7,1.8-14.3,5.6l5.6-27.9h-7.3l-14.6,72.9h7.3l6.1-30.6c2.6-12.9,12.7-13.6,14.6-13.6,5.6,0,8.9,3.2,8.9,8.7s-.2,2.9-.5,4.6l-6.2,30.8h7.3l6.4-31.5c.3-1.7.5-3.1.5-5,0-8.5-5.6-14.2-13.9-14.2h0v.2Z"/>
            <path class="cls-2" d="M435,79.9c-13.2,0-22.5,9.3-25.5,25.5-.5,2.7-.7,5.8-.7,7.7,0,11.1,6.7,18,17.6,18s12.1-2.4,16.6-7h0l-4.2-5.2h0c-3.9,4.1-7.3,5.7-12,5.7s-10.7-3.1-10.7-11.7.3-4.9.8-7.5c.8-4.2,2.5-10.2,6.4-14.3,3.1-3.2,6.8-4.8,11-4.8s7.1,1.6,9.7,5.5h0l5.4-4.4h0c-3.6-5.2-8.1-7.5-14.4-7.5h0Z"/>
            <polygon class="cls-2" points="397.2 66.8 404.5 66.8 406.4 57.7 399.1 57.7 397.2 66.8"/>
            <polygon class="cls-2" points="326.4 66.8 333.7 66.8 335.5 57.7 328.2 57.7 326.4 66.8"/>
            <polygon class="cls-2" points="307 66.8 314.3 66.8 316.1 57.7 308.8 57.7 307 66.8"/>
          </g>
          <polygon class="cls-2" points="209.6 85.9 193.2 85.9 199 57.7 59.6 57.7 45 130.5 100.6 130.5 104.2 112.3 71.4 112.3 73.4 102.3 106.2 102.3 109.5 85.9 76.7 85.9 78.7 75.9 130.6 75.9 119.7 130.5 142.4 130.5 153.4 75.9 172.5 75.9 161.6 130.5 184.3 130.5 190 102.3 206.4 102.3 200.7 130.5 223.5 130.5 238.1 57.7 215.4 57.7 209.6 85.9"/>
        </g>
        <rect class="cls-2" x="545" y="57.1" width="1.2" height="71.4"/>
      </g>
    </g>
  </g>
</svg>